HIERARCHY
ROOT mixamorig:Hips
{
	OFFSET -0.000008 104.274872 1.554316
	CHANNELS 6 Xposition Yposition Zposition Xrotation Yrotation Zrotation
	JOINT mixamorig:Spine
	{
		OFFSET -0.000005 10.181595 0.131519
		CHANNELS 6 Xposition Yposition Zposition Xrotation Yrotation Zrotation
		JOINT mixamorig:Spine1
		{
			OFFSET -0.000000 9.893959 -1.470707
			CHANNELS 6 Xposition Yposition Zposition Xrotation Yrotation Zrotation
			JOINT mixamorig:Spine2
			{
				OFFSET -0.000000 9.220757 -1.370641
				CHANNELS 6 Xposition Yposition Zposition Xrotation Yrotation Zrotation
				JOINT mixamorig:Neck
				{
					OFFSET 0.000001 16.740417 -2.049036
					CHANNELS 6 Xposition Yposition Zposition Xrotation Yrotation Zrotation
					JOINT mixamorig:Head
					{
						OFFSET 0.000000 9.617874 1.685006
						CHANNELS 6 Xposition Yposition Zposition Xrotation Yrotation Zrotation
						JOINT mixamorig:HeadTop_End
						{
							OFFSET 0.000002 22.037354 7.501101
							CHANNELS 6 Xposition Yposition Zposition Xrotation Yrotation Zrotation
							End Site
							{
								OFFSET 0.000168 2310.654297 -282.823242
							}
						}
					}
				}
				JOINT mixamorig:RightShoulder
				{
					OFFSET -4.569970 11.014908 -2.160885
					CHANNELS 6 Xposition Yposition Zposition Xrotation Yrotation Zrotation
					JOINT mixamorig:RightArm
					{
						OFFSET -10.592851 -0.524811 -2.232101
						CHANNELS 6 Xposition Yposition Zposition Xrotation Yrotation Zrotation
						JOINT mixamorig:RightForeArm
						{
							OFFSET -27.841511 0.000031 -0.000004
							CHANNELS 6 Xposition Yposition Zposition Xrotation Yrotation Zrotation
							JOINT mixamorig:RightHand
							{
								OFFSET -28.328831 -0.000015 0.000015
								CHANNELS 6 Xposition Yposition Zposition Xrotation Yrotation Zrotation
								JOINT mixamorig:RightHandThumb1
								{
									OFFSET -2.464806 -1.573990 2.681852
									CHANNELS 6 Xposition Yposition Zposition Xrotation Yrotation Zrotation
									JOINT mixamorig:RightHandThumb2
									{
										OFFSET -3.215179 -1.872803 1.924282
										CHANNELS 6 Xposition Yposition Zposition Xrotation Yrotation Zrotation
										JOINT mixamorig:RightHandThumb3
										{
											OFFSET -2.654831 -1.527969 1.512609
											CHANNELS 6 Xposition Yposition Zposition Xrotation Yrotation Zrotation
											JOINT mixamorig:RightHandThumb4
											{
												OFFSET -2.018814 -1.152008 1.108052
												CHANNELS 6 Xposition Yposition Zposition Xrotation Yrotation Zrotation
												End Site
												{
													OFFSET -188.809540 -114.533607 132.431396
												}
											}
										}
									}
								}
								JOINT mixamorig:RightHandIndex1
								{
									OFFSET -9.108284 -0.517868 2.259835
									CHANNELS 6 Xposition Yposition Zposition Xrotation Yrotation Zrotation
									JOINT mixamorig:RightHandIndex2
									{
										OFFSET -3.699989 0.000000 0.001215
										CHANNELS 6 Xposition Yposition Zposition Xrotation Yrotation Zrotation
										JOINT mixamorig:RightHandIndex3
										{
											OFFSET -2.850006 0.000031 -0.000522
											CHANNELS 6 Xposition Yposition Zposition Xrotation Yrotation Zrotation
											JOINT mixamorig:RightHandIndex4
											{
												OFFSET -2.772186 -0.000015 -0.000020
												CHANNELS 6 Xposition Yposition Zposition Xrotation Yrotation Zrotation
												End Site
												{
													OFFSET -277.218445 0.000000 -0.050231
												}
											}
										}
									}
								}
								JOINT mixamorig:RightHandMiddle1
								{
									OFFSET -9.532516 -0.000031 -0.000023
									CHANNELS 6 Xposition Yposition Zposition Xrotation Yrotation Zrotation
									JOINT mixamorig:RightHandMiddle2
									{
										OFFSET -3.700005 -0.000015 0.003713
										CHANNELS 6 Xposition Yposition Zposition Xrotation Yrotation Zrotation
										JOINT mixamorig:RightHandMiddle3
										{
											OFFSET -2.949974 0.000015 -0.002054
											CHANNELS 6 Xposition Yposition Zposition Xrotation Yrotation Zrotation
											JOINT mixamorig:RightHandMiddle4
											{
												OFFSET -2.946640 0.000000 -0.000156
												CHANNELS 6 Xposition Yposition Zposition Xrotation Yrotation Zrotation
												End Site
												{
													OFFSET -294.664337 0.000000 -0.113670
												}
											}
										}
									}
								}
								JOINT mixamorig:RightHandRing1
								{
									OFFSET -9.103600 -0.043076 -1.865134
									CHANNELS 6 Xposition Yposition Zposition Xrotation Yrotation Zrotation
									JOINT mixamorig:RightHandRing2
									{
										OFFSET -3.379288 0.000000 -0.001055
										CHANNELS 6 Xposition Yposition Zposition Xrotation Yrotation Zrotation
										JOINT mixamorig:RightHandRing3
										{
											OFFSET -2.889687 -0.000015 0.000379
											CHANNELS 6 Xposition Yposition Zposition Xrotation Yrotation Zrotation
											JOINT mixamorig:RightHandRing4
											{
												OFFSET -2.638809 -0.000015 0.000941
												CHANNELS 6 Xposition Yposition Zposition Xrotation Yrotation Zrotation
												End Site
												{
													OFFSET -263.880371 0.000000 0.516020
												}
											}
										}
									}
								}
								JOINT mixamorig:RightHandPinky1
								{
									OFFSET -8.076683 -0.486710 -3.806280
									CHANNELS 6 Xposition Yposition Zposition Xrotation Yrotation Zrotation
									JOINT mixamorig:RightHandPinky2
									{
										OFFSET -3.600014 -0.000015 -0.003747
										CHANNELS 6 Xposition Yposition Zposition Xrotation Yrotation Zrotation
										JOINT mixamorig:RightHandPinky3
										{
											OFFSET -2.099983 0.000000 -0.005739
											CHANNELS 6 Xposition Yposition Zposition Xrotation Yrotation Zrotation
											JOINT mixamorig:RightHandPinky4
											{
												OFFSET -2.115768 -0.000031 -0.003680
												CHANNELS 6 Xposition Yposition Zposition Xrotation Yrotation Zrotation
												End Site
												{
													OFFSET -211.577087 0.000000 -0.350686
												}
											}
										}
									}
								}
							}
						}
					}
				}
				JOINT mixamorig:LeftShoulder
				{
					OFFSET 4.570447 11.014725 -2.160855
					CHANNELS 6 Xposition Yposition Zposition Xrotation Yrotation Zrotation
					JOINT mixamorig:LeftArm
					{
						OFFSET 10.592371 -0.524597 -2.232119
						CHANNELS 6 Xposition Yposition Zposition Xrotation Yrotation Zrotation
						JOINT mixamorig:LeftForeArm
						{
							OFFSET 27.841532 -0.000031 0.000026
							CHANNELS 6 Xposition Yposition Zposition Xrotation Yrotation Zrotation
							JOINT mixamorig:LeftHand
							{
								OFFSET 28.328846 -0.000061 0.000022
								CHANNELS 6 Xposition Yposition Zposition Xrotation Yrotation Zrotation
								JOINT mixamorig:LeftHandThumb1
								{
									OFFSET 2.466141 -1.576172 2.681732
									CHANNELS 6 Xposition Yposition Zposition Xrotation Yrotation Zrotation
									JOINT mixamorig:LeftHandThumb2
									{
										OFFSET 3.217812 -1.872070 1.916482
										CHANNELS 6 Xposition Yposition Zposition Xrotation Yrotation Zrotation
										JOINT mixamorig:LeftHandThumb3
										{
											OFFSET 2.656029 -1.528778 1.514513
											CHANNELS 6 Xposition Yposition Zposition Xrotation Yrotation Zrotation
											JOINT mixamorig:LeftHandThumb4
											{
												OFFSET 2.020889 -1.154053 1.115139
												CHANNELS 6 Xposition Yposition Zposition Xrotation Yrotation Zrotation
												End Site
												{
													OFFSET 190.885437 -115.081749 130.048782
												}
											}
										}
									}
								}
								JOINT mixamorig:LeftHandIndex1
								{
									OFFSET 9.109314 -0.518021 2.259871
									CHANNELS 6 Xposition Yposition Zposition Xrotation Yrotation Zrotation
									JOINT mixamorig:LeftHandIndex2
									{
										OFFSET 3.699989 0.000000 -0.000322
										CHANNELS 6 Xposition Yposition Zposition Xrotation Yrotation Zrotation
										JOINT mixamorig:LeftHandIndex3
										{
											OFFSET 2.850006 0.000000 0.000352
											CHANNELS 6 Xposition Yposition Zposition Xrotation Yrotation Zrotation
											JOINT mixamorig:LeftHandIndex4
											{
												OFFSET 2.774864 -0.000031 -0.000027
												CHANNELS 6 Xposition Yposition Zposition Xrotation Yrotation Zrotation
												End Site
												{
													OFFSET 277.486267 0.000000 -0.009857
												}
											}
										}
									}
								}
								JOINT mixamorig:LeftHandMiddle1
								{
									OFFSET 9.533394 0.000061 0.000044
									CHANNELS 6 Xposition Yposition Zposition Xrotation Yrotation Zrotation
									JOINT mixamorig:LeftHandMiddle2
									{
										OFFSET 3.699989 -0.000015 -0.000231
										CHANNELS 6 Xposition Yposition Zposition Xrotation Yrotation Zrotation
										JOINT mixamorig:LeftHandMiddle3
										{
											OFFSET 2.949997 -0.000015 -0.000059
											CHANNELS 6 Xposition Yposition Zposition Xrotation Yrotation Zrotation
											JOINT mixamorig:LeftHandMiddle4
											{
												OFFSET 2.952896 0.000031 0.000063
												CHANNELS 6 Xposition Yposition Zposition Xrotation Yrotation Zrotation
												End Site
												{
													OFFSET 295.289337 0.000000 0.022810
												}
											}
										}
									}
								}
								JOINT mixamorig:LeftHandRing1
								{
									OFFSET 9.104523 -0.042999 -1.865074
									CHANNELS 6 Xposition Yposition Zposition Xrotation Yrotation Zrotation
									JOINT mixamorig:LeftHandRing2
									{
										OFFSET 3.150009 -0.000031 0.000043
										CHANNELS 6 Xposition Yposition Zposition Xrotation Yrotation Zrotation
										JOINT mixamorig:LeftHandRing3
										{
											OFFSET 2.949982 -0.000015 0.000040
											CHANNELS 6 Xposition Yposition Zposition Xrotation Yrotation Zrotation
											JOINT mixamorig:LeftHandRing4
											{
												OFFSET 2.644348 0.000000 0.000057
												CHANNELS 6 Xposition Yposition Zposition Xrotation Yrotation Zrotation
												End Site
												{
													OFFSET 264.434631 0.000000 0.012105
												}
											}
										}
									}
								}
								JOINT mixamorig:LeftHandPinky1
								{
									OFFSET 8.077789 -0.486847 -3.806259
									CHANNELS 6 Xposition Yposition Zposition Xrotation Yrotation Zrotation
									JOINT mixamorig:LeftHandPinky2
									{
										OFFSET 3.599953 0.000031 0.014727
										CHANNELS 6 Xposition Yposition Zposition Xrotation Yrotation Zrotation
										JOINT mixamorig:LeftHandPinky3
										{
											OFFSET 2.100021 0.000015 0.007705
											CHANNELS 6 Xposition Yposition Zposition Xrotation Yrotation Zrotation
											JOINT mixamorig:LeftHandPinky4
											{
												OFFSET 2.125504 0.000031 0.007517
												CHANNELS 6 Xposition Yposition Zposition Xrotation Yrotation Zrotation
												End Site
												{
													OFFSET 212.550781 0.000000 0.625752
												}
											}
										}
									}
								}
							}
						}
					}
				}
			}
		}
	}
	JOINT mixamorig:RightUpLeg
	{
		OFFSET -8.207787 -6.751648 -1.599560
		CHANNELS 6 Xposition Yposition Zposition Xrotation Yrotation Zrotation
		JOINT mixamorig:RightLeg
		{
			OFFSET -0.000002 -44.370117 0.345942
			CHANNELS 6 Xposition Yposition Zposition Xrotation Yrotation Zrotation
			JOINT mixamorig:RightFoot
			{
				OFFSET 0.000003 -44.423679 -3.043532
				CHANNELS 6 Xposition Yposition Zposition Xrotation Yrotation Zrotation
				JOINT mixamorig:RightToeBase
				{
					OFFSET -0.000002 -8.728671 10.710558
					CHANNELS 6 Xposition Yposition Zposition Xrotation Yrotation Zrotation
					JOINT mixamorig:RightToe_End
					{
						OFFSET -0.000001 -0.000679 9.278119
						CHANNELS 6 Xposition Yposition Zposition Xrotation Yrotation Zrotation
						End Site
						{
							OFFSET 0.000000 -0.067690 927.812134
						}
					}
				}
			}
		}
	}
	JOINT mixamorig:LeftUpLeg
	{
		OFFSET 8.207793 -6.751686 -1.599556
		CHANNELS 6 Xposition Yposition Zposition Xrotation Yrotation Zrotation
		JOINT mixamorig:LeftLeg
		{
			OFFSET -0.000004 -44.370014 0.346954
			CHANNELS 6 Xposition Yposition Zposition Xrotation Yrotation Zrotation
			JOINT mixamorig:LeftFoot
			{
				OFFSET -0.000001 -44.423672 -3.044401
				CHANNELS 6 Xposition Yposition Zposition Xrotation Yrotation Zrotation
				JOINT mixamorig:LeftToeBase
				{
					OFFSET -0.000002 -8.728669 10.710558
					CHANNELS 6 Xposition Yposition Zposition Xrotation Yrotation Zrotation
					JOINT mixamorig:LeftToe_End
					{
						OFFSET -0.000003 -0.000679 9.278133
						CHANNELS 6 Xposition Yposition Zposition Xrotation Yrotation Zrotation
						End Site
						{
							OFFSET 0.000000 -0.068021 927.813477
						}
					}
				}
			}
		}
	}
}
MOTION
Frames: 3
Frame Time: 0.033333
0.000006 104.270477 1.554256 0.000010 0.000003 -0.000113 -0.000005 10.181587 0.131522 0.000001 -0.000003 0.000084 -0.000000 9.893967 -1.470711 0.000001 0.000000 -0.000000 -0.000000 9.220802 -1.370642 0.000000 -0.000000 -0.000000 0.000001 16.740433 -2.049030 0.000000 -0.000000 -0.000000 0.000000 9.617859 1.685014 0.000000 0.000000 0.000000 0.000002 22.037384 7.501101 0.000000 -0.000000 0.000000 -4.569968 11.014880 -2.160881 0.000008 0.000001 -0.000038 -10.592875 -0.524698 -2.231996 72.112277 12.304494 -8.974381 -27.841511 0.000000 0.000545 -51.940505 115.304002 75.125770 -28.328829 0.000006 0.000026 -0.000315 -0.000045 0.000007 -2.464507 -1.573660 2.682287 -54.085334 174.803078 -36.161193 -3.215295 -1.872648 1.924680 158.451578 29.123285 -11.635225 -2.654937 -1.527912 1.513105 147.140566 26.072353 -45.455998 -2.018842 -1.152016 1.108052 -0.000002 -0.000003 0.000002 -9.108395 -0.517571 2.260124 96.772572 18.990825 -21.381304 -3.700073 0.000309 0.001498 94.079005 15.165002 -16.244731 -2.850094 0.000358 -0.000260 93.112021 11.913975 -12.573139 -2.772153 -0.000016 -0.000016 0.000002 -0.000001 -0.000001 -9.532615 0.000248 0.000227 90.149440 20.649619 -20.850964 -3.700099 0.000325 0.003948 88.630625 13.502265 -13.092263 -2.950048 0.000331 -0.001836 89.302982 12.098627 -11.946337 -2.946619 0.000013 -0.000154 -0.000005 0.000001 0.000000 -9.103709 -0.042786 -1.864878 87.036855 21.993433 -20.865181 -3.379331 0.000310 -0.000828 87.218613 10.611443 -10.127829 -2.889758 0.000343 0.000608 91.836032 6.565022 -6.825124 -2.638803 -0.000015 0.000941 0.000002 -0.000002 0.000004 -8.076756 -0.486408 -3.806053 80.559609 21.438169 -18.093473 -3.600043 0.000275 -0.003531 84.675139 10.777796 -9.491113 -2.100012 0.000332 -0.005509 86.370570 6.242541 -5.652049 -2.115769 -0.000070 -0.003684 -0.000002 -0.000002 -0.000003 4.570446 11.014691 -2.160851 -0.000018 0.000010 -0.000021 10.592366 -0.524520 -2.232293 71.464283 3.404288 -2.449398 27.841846 0.000098 -0.000248 110.688618 -64.974572 85.297554 28.328817 -0.000028 0.000023 0.000019 -0.000089 -0.000000 2.465913 -1.576116 2.681888 -47.879626 164.036487 10.506801 3.217786 -1.871726 1.916362 153.308199 -31.611881 -4.958380 2.656099 -1.528613 1.514454 143.075114 -27.440475 39.216624 2.020887 -1.154083 1.115157 0.000002 0.000003 0.000004 9.109365 -0.517828 2.259742 89.428295 -14.350209 14.197136 3.700048 0.000147 -0.000454 86.434678 -15.332709 14.433469 2.850072 0.000196 0.000225 83.823442 -13.031252 11.705693 2.774888 -0.000033 -0.000025 0.000001 0.000001 0.000003 9.533443 0.000253 -0.000097 90.594591 -12.582452 12.704011 3.700054 0.000175 -0.000380 90.997757 -13.863878 14.102228 2.950066 0.000166 -0.000196 90.881855 -17.047681 17.311258 2.952866 -0.000018 0.000058 -0.000001 0.000000 -0.000000 9.104565 -0.042813 -1.865211 90.010726 -12.615598 12.619817 3.150060 0.000221 -0.000100 94.210104 -12.606749 13.562199 2.950026 0.000182 -0.000055 95.473409 -14.311868 15.733600 2.644326 0.000032 0.000068 -0.000002 0.000001 -0.000000 8.077833 -0.486704 -3.806420 82.177155 -15.205782 13.785641 3.600008 0.000196 0.014553 82.877713 -11.697977 10.778092 2.100047 0.000191 0.007551 84.992108 -10.908704 10.436150 2.125493 0.000001 0.007510 -0.000001 -0.000005 0.000001 -8.207786 -6.751667 -1.599560 -0.077001 -0.000003 0.000080 -0.000002 -44.370110 0.345938 0.153719 -0.000000 -0.000000 0.000000 -44.423679 -3.043532 -0.076700 0.000000 -0.000002 -0.000006 -8.728667 10.710559 -0.000009 -0.000000 -0.000000 -0.000001 -0.000679 9.278123 0.000000 -0.000000 -0.000000 8.207792 -6.751710 -1.599556 -0.074518 -0.000003 0.000081 -0.000002 -44.370014 0.346960 0.148822 0.000002 0.000000 -0.000001 -44.423664 -3.044403 -0.074314 0.000000 -0.000002 -0.000004 -8.728671 10.710558 0.000007 -0.000000 -0.000000 0.000000 -0.000680 9.278137 -0.000000 0.000000 -0.000001 
0.000006 104.270477 1.554256 0.000010 0.000003 -0.000113 -0.000005 10.181587 0.131522 0.000001 -0.000003 0.000084 -0.000000 9.893967 -1.470711 0.000001 0.000000 -0.000000 -0.000000 9.220802 -1.370642 0.000000 -0.000000 -0.000000 0.000001 16.740433 -2.049030 0.000000 -0.000000 -0.000000 0.000000 9.617859 1.685014 0.000000 0.000000 0.000000 0.000002 22.037384 7.501101 0.000000 -0.000000 0.000000 -4.569968 11.014880 -2.160881 0.000008 0.000001 -0.000038 -10.592863 -0.524667 -2.232041 71.973385 5.063002 -3.677834 -27.841528 0.000005 0.000569 -51.672799 117.753814 77.455069 -28.328825 0.000023 0.000027 -0.000320 -0.000045 0.000006 -2.464444 -1.573692 2.682301 -52.905768 185.660224 -25.657561 -3.215282 -1.872613 1.924666 155.217620 30.472083 -3.431339 -2.654954 -1.527882 1.513080 144.833711 27.176991 -39.395233 -2.018827 -1.152007 1.108064 -0.000004 -0.000002 0.000005 -9.108370 -0.517537 2.260127 97.634392 17.097502 -19.551606 -3.700066 0.000315 0.001481 92.263548 13.621258 -14.140296 -2.850083 0.000343 -0.000283 89.124809 10.696688 -10.534539 -2.772178 -0.000014 -0.000031 0.000003 0.000001 -0.000000 -9.532597 0.000279 0.000216 88.803729 17.409558 -17.196511 -3.700075 0.000327 0.003938 87.379826 11.476545 -10.876678 -2.950059 0.000323 -0.001824 88.932239 10.712442 -10.508862 -2.946599 0.000001 -0.000164 0.000005 0.000000 -0.000001 -9.103684 -0.042769 -1.864894 85.880360 18.978927 -17.640277 -3.379332 0.000312 -0.000857 87.246309 8.334352 -7.960666 -2.889761 0.000360 0.000612 93.210328 5.507162 -5.871374 -2.638809 0.000001 0.000941 -0.000002 -0.000002 0.000000 -8.076749 -0.486402 -3.806067 77.731931 19.488915 -15.633652 -3.600035 0.000288 -0.003561 81.975377 8.175789 -6.798747 -2.100008 0.000321 -0.005516 86.167221 3.968110 -3.511087 -2.115785 -0.000055 -0.003680 -0.000001 0.000003 -0.000003 4.570446 11.014691 -2.160851 -0.000018 0.000010 -0.000021 10.592353 -0.524554 -2.232264 71.782399 17.285486 -12.553785 27.841850 0.000112 -0.000215 111.356966 -62.783638 83.581380 28.328814 -0.000044 0.000014 0.000019 -0.000087 0.000001 2.466043 -1.576185 2.681905 -31.678561 157.799664 -25.629021 3.217808 -1.871757 1.916373 159.137001 -30.339629 5.507228 2.656114 -1.528664 1.514458 141.507545 -27.272588 48.493226 2.020883 -1.154081 1.115144 0.000001 0.000004 0.000003 9.109378 -0.517850 2.259732 88.717184 -17.846523 17.445189 3.700040 0.000180 -0.000464 87.323272 -13.179600 12.598959 2.850043 0.000208 0.000212 87.400788 -10.510999 10.045899 2.774879 -0.000047 -0.000023 -0.000002 -0.000004 0.000000 9.533471 0.000208 -0.000081 89.353245 -17.063069 16.865469 3.700074 0.000210 -0.000369 92.106631 -11.800707 12.236715 2.950054 0.000203 -0.000197 93.843828 -11.605675 12.408627 2.952858 -0.000015 0.000065 0.000001 -0.000000 0.000003 9.104585 -0.042831 -1.865210 89.791620 -17.041027 16.982021 3.150029 0.000200 -0.000087 94.207317 -11.413954 12.279963 2.950021 0.000226 -0.000077 96.756829 -9.898135 11.134644 2.644327 0.000018 0.000055 0.000001 0.000001 -0.000001 8.077850 -0.486708 -3.806402 84.830198 -19.762196 18.638246 3.600005 0.000207 0.014553 86.011186 -15.444531 14.902906 2.100063 0.000213 0.007546 88.836466 -10.758424 11.008896 2.125513 -0.000024 0.007518 -0.000001 -0.000003 0.000003 -8.207786 -6.751667 -1.599560 -0.077001 -0.000003 0.000080 -0.000002 -44.370110 0.345938 0.153719 -0.000000 -0.000000 0.000000 -44.423679 -3.043532 -0.076700 0.000000 -0.000002 -0.000006 -8.728667 10.710559 -0.000009 -0.000000 -0.000000 -0.000001 -0.000679 9.278123 0.000000 -0.000000 -0.000000 8.207792 -6.751710 -1.599556 -0.074518 -0.000003 0.000081 -0.000002 -44.370014 0.346960 0.148822 0.000002 0.000000 -0.000001 -44.423664 -3.044403 -0.074314 0.000000 -0.000002 -0.000004 -8.728671 10.710558 0.000007 -0.000000 -0.000000 0.000000 -0.000680 9.278137 -0.000000 0.000000 -0.000001 
0.000006 104.270477 1.554256 0.000010 0.000003 -0.000113 -0.000005 10.181587 0.131522 0.000001 -0.000003 0.000084 -0.000000 9.893967 -1.470711 0.000001 0.000000 -0.000000 -0.000000 9.220802 -1.370642 0.000000 -0.000000 -0.000000 0.000001 16.740433 -2.049030 0.000000 -0.000000 -0.000000 0.000000 9.617859 1.685014 0.000000 0.000000 0.000000 0.000002 22.037384 7.501101 0.000000 -0.000000 0.000000 -4.569968 11.014880 -2.160881 0.000008 0.000001 -0.000038 -10.592882 -0.524717 -2.231951 72.045628 17.647344 -12.880198 -27.841513 0.000009 0.000541 -50.830732 112.221750 70.551756 -28.328831 0.000021 0.000033 -0.000318 -0.000046 0.000008 -2.464445 -1.573719 2.682300 -52.107872 188.079163 -22.441995 -3.215290 -1.872614 1.924665 154.776444 30.540180 -2.820939 -2.654966 -1.527882 1.513084 143.986180 27.364484 -39.336589 -2.018808 -1.152000 1.108071 -0.000004 -0.000005 0.000004 -9.108387 -0.517562 2.260114 97.435312 16.947970 -19.315223 -3.700076 0.000320 0.001482 92.419604 14.226623 -14.808992 -2.850100 0.000352 -0.000279 89.218847 11.466118 -11.310942 -2.772145 -0.000002 -0.000021 -0.000003 0.000002 -0.000001 -9.532596 0.000260 0.000214 88.065201 16.993714 -16.576266 -3.700075 0.000332 0.003937 87.076586 11.927644 -11.248137 -2.950055 0.000328 -0.001832 88.624778 11.207688 -10.936579 -2.946629 0.000003 -0.000153 0.000001 -0.000001 0.000002 -9.103709 -0.042772 -1.864896 85.264557 18.796942 -17.285894 -3.379316 0.000326 -0.000860 86.887157 8.554841 -8.120017 -2.889749 0.000351 0.000612 92.909246 5.929654 -6.285284 -2.638791 -0.000004 0.000943 -0.000000 -0.000000 0.000005 -8.076767 -0.486402 -3.806059 77.616378 20.090315 -16.089854 -3.600052 0.000289 -0.003551 81.805531 8.027336 -6.650301 -2.099995 0.000319 -0.005539 85.680618 3.673545 -3.209030 -2.115777 -0.000041 -0.003683 0.000001 -0.000002 -0.000002 4.570446 11.014691 -2.160851 -0.000018 0.000010 -0.000021 10.592358 -0.524530 -2.232281 71.864450 10.602974 -7.694720 27.841846 0.000109 -0.000222 111.982167 -66.581162 88.442999 28.328846 -0.000029 0.000023 0.000020 -0.000090 0.000000 2.466044 -1.576151 2.681913 -31.689353 157.733479 -25.563680 3.217818 -1.871749 1.916379 159.609527 -29.944226 7.595592 2.656108 -1.528654 1.514467 141.737463 -27.200117 48.586926 2.020902 -1.154085 1.115153 -0.000000 0.000003 0.000004 9.109375 -0.517836 2.259728 89.130717 -17.894448 17.616853 3.700054 0.000154 -0.000472 87.493303 -13.078181 12.538936 2.850029 0.000213 0.000190 87.473399 -10.291139 9.848067 2.774891 -0.000047 -0.000026 0.000000 -0.000000 0.000001 9.533462 0.000223 -0.000100 89.698006 -16.887960 16.791562 3.700051 0.000206 -0.000375 92.227956 -11.327329 11.770738 2.950047 0.000207 -0.000206 93.828119 -11.118440 11.885029 2.952866 -0.000032 0.000062 0.000003 0.000001 -0.000000 9.104581 -0.042824 -1.865228 90.080810 -16.678164 16.703340 3.150051 0.000223 -0.000102 94.525003 -10.947519 11.843936 2.950017 0.000222 -0.000093 96.831544 -9.575827 10.786657 2.644302 0.000030 0.000052 -0.000001 0.000000 -0.000000 8.077840 -0.486697 -3.806390 85.575481 -19.389842 18.530739 3.600018 0.000196 0.014572 86.755594 -15.103107 14.770969 2.100034 0.000208 0.007539 89.175066 -10.509772 10.827224 2.125511 -0.000001 0.007513 -0.000001 -0.000001 0.000000 -8.207786 -6.751667 -1.599560 -0.077001 -0.000003 0.000080 -0.000002 -44.370110 0.345938 0.153719 -0.000000 -0.000000 0.000000 -44.423679 -3.043532 -0.076700 0.000000 -0.000002 -0.000006 -8.728667 10.710559 -0.000009 -0.000000 -0.000000 -0.000001 -0.000679 9.278123 0.000000 -0.000000 -0.000000 8.207792 -6.751710 -1.599556 -0.074518 -0.000003 0.000081 -0.000002 -44.370014 0.346960 0.148822 0.000002 0.000000 -0.000001 -44.423664 -3.044403 -0.074314 0.000000 -0.000002 -0.000004 -8.728671 10.710558 0.000007 -0.000000 -0.000000 0.000000 -0.000680 9.278137 -0.000000 0.000000 -0.000001 
